<svg width="16" height="20" viewBox="0 0 16 20" fill="none" xmlns="http://www.w3.org/2000/svg">
<path fill-rule="evenodd" clip-rule="evenodd" d="M7.58648 19.5536C8.68648 19.5536 9.58648 18.6536 9.58648 17.5536H5.58648C5.58648 18.6536 6.47648 19.5536 7.58648 19.5536ZM13.5865 13.5536V8.55359C13.5865 5.48359 11.9465 2.91359 9.08648 2.23359V1.55359C9.08648 0.723589 8.41648 0.0535889 7.58648 0.0535889C6.75648 0.0535889 6.08648 0.723589 6.08648 1.55359V2.23359C3.21648 2.91359 1.58648 5.47359 1.58648 8.55359V13.5536L0.296477 14.8436C-0.333523 15.4736 0.106477 16.5536 0.996477 16.5536H14.1665C15.0565 16.5536 15.5065 15.4736 14.8765 14.8436L13.5865 13.5536Z" fill="#C3CAD9"/>
</svg>
