<svg width="15" height="15" viewBox="0 0 15 15" fill="none" xmlns="http://www.w3.org/2000/svg">
<path d="M10.0784 7.50076L14.4599 11.8823C14.7446 12.1669 14.7446 12.629 14.4599 12.9137L12.9139 14.4597C12.6293 14.7443 12.1678 14.7443 11.8825 14.4597L7.50027 10.0782L3.11805 14.4597C2.83343 14.7443 2.37199 14.7443 2.08737 14.4597L0.540617 12.9137C0.255992 12.629 0.255992 12.1676 0.540617 11.8823L4.92284 7.50076L0.540617 3.11854C0.255992 2.83392 0.255992 2.37176 0.540617 2.08714L2.08809 0.541105C2.37271 0.25648 2.83415 0.25648 3.11877 0.541105L7.50027 4.92332L11.8825 0.541105C12.1671 0.25648 12.6286 0.25648 12.9139 0.541105L14.4599 2.08786C14.7446 2.37248 14.7446 2.83392 14.4599 3.11926L10.0784 7.50076Z" fill="#323B4A"/>
</svg>