<svg width="22" height="19" viewBox="0 0 22 19" fill="none" xmlns="http://www.w3.org/2000/svg">
<path d="M22 15.6071C22 14.7074 21.6384 13.8442 20.9935 13.2077C20.3486 12.5712 19.4741 12.2143 18.5625 12.2143C15.7396 12.2143 11.7604 12.2143 8.9375 12.2143C8.02588 12.2143 7.15137 12.5712 6.5065 13.2077C5.86162 13.8442 5.5 14.7074 5.5 15.6071C5.5 17.8424 5.5 19 5.5 19H22C22 19 22 17.8424 22 15.6071ZM4.125 16.2857H0C0 16.2857 0 15.1281 0 12.8929C0 11.9931 0.361625 11.1299 1.0065 10.4934C1.65138 9.85693 2.52588 9.5 3.4375 9.5H8.987C9.28675 10.0103 9.66763 10.469 10.1131 10.8571H8.9375C6.27962 10.8571 4.125 12.9838 4.125 15.6071V16.2857ZM13.75 2.71429C16.027 2.71429 17.875 4.53829 17.875 6.78571C17.875 9.03314 16.027 10.8571 13.75 10.8571C11.473 10.8571 9.625 9.03314 9.625 6.78571C9.625 4.53829 11.473 2.71429 13.75 2.71429ZM8.42325 8.13879C8.3655 8.1415 8.30775 8.14286 8.25 8.14286C5.973 8.14286 4.125 6.31886 4.125 4.07143C4.125 1.824 5.973 0 8.25 0C9.66075 0 10.9065 0.700286 11.6504 1.767C9.65525 2.58264 8.25 4.52336 8.25 6.78571C8.25 7.25257 8.3105 7.70721 8.42325 8.13879Z" fill="#1353D1"/>
</svg>
