<svg width="16" height="16" viewBox="0 0 16 16" fill="none" xmlns="http://www.w3.org/2000/svg">
<path d="M15.4843 1.84619H9.84619V3.6825H11.7114V4.93235H9.84619V6.15388H11.6923V7.38465H9.84619V8.61542H11.6923V9.84619H9.84619V11.077H11.6923V12.3077H9.84619V14.1539H15.4843C15.768 14.1539 16 13.9133 16 13.6185V2.38158C16 2.08681 15.768 1.84619 15.4843 1.84619ZM14.7693 12.3077H12.3077V11.077H14.7693V12.3077ZM14.7693 9.84619H12.3077V8.61542H14.7693V9.84619ZM14.7693 7.38465H12.3077V6.15388H14.7693V7.38465ZM14.7693 4.92311H12.3077V3.69235H14.7693V4.92311Z" fill="#C3CAD9"/>
<path d="M0 1.77785V14.2228L9.23077 16V0L0 1.77785ZM5.83877 11.1262L4.76492 9.096C4.72431 9.02031 4.68246 8.88123 4.63877 8.67877H4.62215C4.60185 8.77415 4.55385 8.91939 4.47815 9.11385L3.40062 11.1262H1.72738L3.71385 8.00985L1.89662 4.89292H3.60492L4.496 6.76185C4.56554 6.90954 4.62769 7.08492 4.68308 7.28739H4.70031C4.73539 7.16554 4.80062 6.98462 4.896 6.744L5.88677 4.89231H7.45108L5.58215 7.98277L7.50339 11.1255L5.83877 11.1262Z" fill="#C3CAD9"/>
</svg>
