<svg width="18" height="12" viewBox="0 0 18 12" fill="none" xmlns="http://www.w3.org/2000/svg">
<path d="M8.82617 0C3.39429 0 0 5.99606 0 5.99606C0 5.99606 3.36189 11.9921 8.82617 11.9921C13.9371 11.9921 17.8164 5.99606 17.8164 5.99606C17.8164 5.99606 13.969 0 8.82617 0ZM8.87451 8.69657C7.38617 8.69657 6.18069 7.49057 6.18069 6.00274C6.18069 4.51491 7.38669 3.3084 8.87451 3.3084C10.3623 3.3084 11.5689 4.51491 11.5689 6.00274C11.5689 7.49057 10.3623 8.69657 8.87451 8.69657ZM8.89097 4.65583C8.1504 4.65583 7.55023 5.25651 7.55023 5.99657C7.55023 6.73663 8.1504 7.33731 8.89097 7.33731C9.63154 7.33731 10.2317 6.73714 10.2317 5.99657C10.2322 5.25651 9.63206 4.65583 8.89097 4.65583Z" fill="#C3CAD9"/>
</svg>
