<svg width="15" height="14" viewBox="0 0 15 14" fill="none" xmlns="http://www.w3.org/2000/svg">
<path d="M14.258 8.8693H13.6289V5.72376C14.4295 5.42041 15 4.64911 15 3.74251C15 2.57133 14.0503 1.6225 12.8791 1.6225C11.9794 1.6225 11.2107 2.18353 10.9048 2.97379H9.46731V2.89709C9.46731 2.48774 9.13638 2.15595 8.72703 2.15595H4.24572C3.83637 2.15595 3.50544 2.4886 3.50544 2.89709V2.97293H2.07314V1.51995C2.07314 1.1106 1.74136 0.778809 1.33287 0.778809H0.0686201C-0.34073 0.778809 -0.671658 1.1106 -0.671658 1.51995V6.0004C-0.671658 6.41061 -0.339869 6.74067 0.0686201 6.74067H1.33287C1.74136 6.74067 2.07314 6.40975 2.07314 6.0004V4.08464H3.5063V4.16134C3.5063 4.57069 3.83723 4.90248 4.24658 4.90248H8.72703C9.13724 4.90248 9.46731 4.57069 9.46731 4.16134V4.08464H10.7884C10.9332 4.974 11.6304 5.67723 12.5172 5.82976V8.8693H9.77755C9.3682 8.8693 9.03727 9.20109 9.03727 9.60871V9.68541H7.4895V8.00061C7.4895 7.59212 7.15685 7.26033 6.74836 7.26033H5.48411C5.07476 7.26033 4.74383 7.59299 4.74383 8.00061V9.68541H3.16503C2.92028 8.78398 2.099 8.12126 1.12087 8.12126C-0.050307 8.12126 -1 9.07096 -1 10.2413C-1 11.4124 -0.050307 12.3613 1.12087 12.3613C2.09986 12.3613 2.92028 11.6986 3.16503 10.7971H4.74383V12.4819C4.74383 12.8921 5.07562 13.2222 5.48411 13.2222H6.74836C7.15685 13.2222 7.4895 12.8913 7.4895 12.4819V10.7971H9.03727V10.8738C9.03727 11.284 9.36906 11.6141 9.77755 11.6141H14.258C14.6682 11.6141 14.9991 11.2832 14.9991 10.8738V9.60957C14.9991 9.20109 14.6673 8.8693 14.258 8.8693Z" fill="#6B7A99"/>
</svg>
