<svg width="13" height="15" viewBox="0 0 13 15" fill="none" xmlns="http://www.w3.org/2000/svg">
<path fill-rule="evenodd" clip-rule="evenodd" d="M5.64717 0.589464C6.96254 0.293381 7.91667 1.42388 7.91667 2.54163V12.4583C7.91667 13.576 6.96254 14.7065 5.64717 14.4105C2.48658 13.6993 0.125 10.8759 0.125 7.49996C0.125 4.12405 2.48658 1.30063 5.64717 0.589464ZM9.54087 4.87417C9.67371 4.74138 9.85384 4.66678 10.0417 4.66678C10.2295 4.66678 10.4096 4.74138 10.5425 4.87417L12.6675 6.99917C12.8002 7.132 12.8748 7.31214 12.8748 7.49996C12.8748 7.68779 12.8002 7.86792 12.6675 8.00076L10.5425 10.1258C10.4089 10.2548 10.2299 10.3262 10.0442 10.3246C9.85849 10.323 9.68083 10.2485 9.5495 10.1171C9.41817 9.9858 9.34368 9.80814 9.34206 9.62241C9.34045 9.43669 9.41185 9.25777 9.54087 9.12417L10.4567 8.2083H4.375C4.18714 8.2083 4.00697 8.13367 3.87413 8.00083C3.74129 7.86799 3.66667 7.68783 3.66667 7.49996C3.66667 7.3121 3.74129 7.13194 3.87413 6.9991C4.00697 6.86626 4.18714 6.79163 4.375 6.79163H10.4567L9.54087 5.87576C9.40808 5.74292 9.33348 5.56279 9.33348 5.37496C9.33348 5.18714 9.40808 5.007 9.54087 4.87417Z" fill="#ED5B52"/>
</svg>
