<svg width="11" height="13" viewBox="0 0 11 13" fill="none" xmlns="http://www.w3.org/2000/svg">
<path d="M10.9777 3.98899L10.9915 4.10798L10.9962 4.22875V8.77124C10.9962 9.29221 10.7368 9.77633 10.3092 10.0654L10.215 10.1244L6.28104 12.3956L6.20376 12.4374L6.12479 12.4745V6.85661L10.9777 3.98899ZM0.0218866 3.98901L4.87479 6.85661V12.4745C4.82166 12.4513 4.76947 12.425 4.71854 12.3956L0.784668 10.1244C0.30123 9.8453 0.00341797 9.32942 0.00341797 8.77124V4.22875C0.00341797 4.14775 0.00969287 4.06764 0.0218866 3.98901ZM6.28104 0.604354L10.215 2.87559C10.2465 2.89382 10.2773 2.91305 10.3073 2.93325L5.49979 5.77405L0.692343 2.93326C0.722306 2.91306 0.753087 2.89382 0.784668 2.87559L4.71854 0.604354C5.20197 0.325241 5.7976 0.325241 6.28104 0.604354Z" fill="#6B7A99"/>
</svg>
