<svg width="11" height="12" viewBox="0 0 11 12" fill="none" xmlns="http://www.w3.org/2000/svg">
<path fill-rule="evenodd" clip-rule="evenodd" d="M0 1.2C0 0.537258 0.537256 0 1.2 0H7.76568L10.4 2.63431V10.8C10.4 11.4627 9.86272 12 9.2 12H1.2C0.537256 12 0 11.4627 0 10.8V1.2ZM2 4.8H0.8V8.8H1.6V7.2H2C2.66274 7.2 3.2 6.66274 3.2 6C3.2 5.33726 2.66274 4.8 2 4.8ZM5.2 4.8H4V8.8H5.2C5.86274 8.8 6.4 8.26272 6.4 7.6V6C6.4 5.33726 5.86274 4.8 5.2 4.8ZM7.2 8.8V4.8H9.6V5.6H8V6.4H8.8V7.2H8V8.8H7.2Z" fill="#FBFCFF"/>
</svg>
