<svg width="11" height="11" viewBox="0 0 11 11" fill="none" xmlns="http://www.w3.org/2000/svg">
<path d="M2.2002 5.86663H2.56686C2.76936 5.86663 2.93353 5.70247 2.93353 5.49997C2.93353 5.29746 2.76936 5.1333 2.56686 5.1333H2.2002V5.86663Z" fill="white"/>
<path fill-rule="evenodd" clip-rule="evenodd" d="M0.733398 1.1C0.733398 0.492487 1.22588 0 1.8334 0H7.85194L10.2667 2.41479V9.9C10.2667 10.5075 9.77422 11 9.16673 11H1.8334C1.22588 11 0.733398 10.5075 0.733398 9.9V1.1ZM1.46673 4.4H2.56673C3.17425 4.4 3.66673 4.89248 3.66673 5.5C3.66673 6.10752 3.17425 6.6 2.56673 6.6H2.20007V8.06667H1.46673V4.4ZM7.3334 4.4H9.5334V5.13333H8.06673V7.33333H8.80007V6.23333H9.5334V8.06667H7.3334V4.4ZM5.1334 6.31995V8.06667H4.40006V4.4H5.1334V4.68016L5.86673 6.14683V4.4H6.60006V8.06667H5.86673V7.78661L5.1334 6.31995Z" fill="white"/>
</svg>
