<svg width="12" height="12" viewBox="0 0 12 12" fill="none" xmlns="http://www.w3.org/2000/svg">
<path d="M1.65076 4.47643L1.86051 3.98143C1.16203 2.36786 1.20818 2.32071 1.34452 2.17929L2.22548 1.28571L2.31358 1.21071H2.41636C2.4709 1.21071 2.62611 1.21071 3.99161 1.83857L4.49082 1.62429C5.14316 0 5.21028 0 5.39906 0H6.65758C6.84636 0 6.91977 0 7.51757 1.64143L8.01468 1.85571C8.9376 1.45286 9.47247 1.25143 9.6193 1.25143H9.73676L10.6974 2.21357C10.8443 2.35286 10.8946 2.40214 10.1563 3.99214L10.366 4.485C12 5.12786 12 5.19214 12 5.39143V6.65357C12 6.85071 12 6.92143 10.3597 7.51071L10.15 8.00143C10.8485 9.615 10.8023 9.66429 10.666 9.80357L9.77661 10.7143L9.68852 10.7936H9.58364C9.5312 10.7936 9.37389 10.7936 8.01049 10.1507L7.51127 10.365C6.86104 12 6.79601 12 6.60514 12H5.34662C5.15364 12 5.08443 12 4.48453 10.3586L3.98322 10.1443C3.0666 10.5407 2.52963 10.7421 2.387 10.7421H2.26744L1.29838 9.77357C1.15994 9.63214 1.11169 9.58286 1.84793 7.99929L1.63818 7.50643C0 6.86357 0 6.79286 0 6.6V5.34214C0.00839043 5.14286 0.00838947 5.07429 1.65076 4.47643ZM6.00105 8.1C6.40572 8.09156 6.79894 7.96126 7.13141 7.72544C7.46389 7.48962 7.72082 7.15877 7.86999 6.77438C8.01916 6.38999 8.05393 5.96917 7.96994 5.56467C7.88595 5.16017 7.68694 4.79001 7.39786 4.50059C7.10878 4.21117 6.7425 4.01538 6.34494 3.93776C5.94739 3.86015 5.53625 3.90416 5.16308 4.06429C4.78991 4.22442 4.47131 4.49353 4.24724 4.83788C4.02317 5.18223 3.9036 5.5865 3.90351 6C3.9096 6.56247 4.13388 7.09949 4.52713 7.4932C4.92038 7.88691 5.45047 8.10514 6.00105 8.1Z" fill="#6B7A99"/>
</svg>
