<svg width="13" height="13" viewBox="0 0 11 11" fill="none" xmlns="http://www.w3.org/2000/svg">
<path d="M10.6752 10.6804C10.4694 10.8851 10.1911 11 9.90092 11C9.61079 11 9.33245 10.8851 9.12669 10.6804L5.18415 6.73482C4.6654 7.002 4.08897 7.13742 3.50561 7.12917C2.92225 7.12091 2.34987 6.96923 1.83888 6.68748C1.32789 6.40573 0.893966 6.00256 0.575324 5.51347C0.256681 5.02438 0.0630982 4.46438 0.0116233 3.88279C-0.0147115 3.54297 0.00375027 3.20116 0.0665333 2.86617C0.089091 2.76953 0.13738 2.6808 0.206273 2.60941C0.275166 2.53803 0.362091 2.48664 0.457817 2.46072C0.553543 2.4348 0.654498 2.4353 0.74996 2.46218C0.845422 2.48906 0.931829 2.54131 1 2.61339L2.75713 4.40484L4.12439 4.13007L4.40443 2.75626L2.61436 0.997786C2.54525 0.929232 2.49559 0.843529 2.47045 0.749453C2.44531 0.655376 2.44561 0.556305 2.47131 0.46238C2.49701 0.368456 2.54718 0.283052 2.6167 0.214913C2.68622 0.146773 2.77258 0.0983447 2.86695 0.0745856C3.2012 0.00807778 3.54275 -0.0140937 3.88278 0.0086427C4.46239 0.0609099 5.02035 0.254656 5.50774 0.5729C5.99514 0.891144 6.39709 1.32417 6.67838 1.83403C6.95967 2.34389 7.11171 2.91501 7.12116 3.49734C7.13062 4.07967 6.9972 4.65544 6.73261 5.17417L10.6752 9.11976C10.7781 9.22193 10.8598 9.34348 10.9155 9.47741C10.9713 9.61134 11 9.75499 11 9.90008C11 10.0452 10.9713 10.1888 10.9155 10.3227C10.8598 10.4567 10.7781 10.5782 10.6752 10.6804Z" fill="#6B7A99"/>
</svg>
