<svg width="23" height="18" viewBox="0 0 23 18" fill="none" xmlns="http://www.w3.org/2000/svg">
<path d="M9.43116 10.7037H10.957V14.8991C10.2144 14.371 9.53321 12.8093 9.43116 10.7037ZM6.59496 10.7037C6.78223 12.4055 7.83855 13.845 9.30794 14.5778C8.76459 13.6067 8.41393 12.2594 8.34662 10.7037H6.59496ZM9.43116 9.61811H10.957V5.42271C10.2144 5.95195 9.53321 7.51362 9.43116 9.61811ZM6.59496 9.61811H8.34716C8.41393 8.06458 8.76567 6.71569 9.30849 5.7446C7.83855 6.47685 6.78223 7.91639 6.59496 9.61811ZM12.0426 14.9002C12.7852 14.3704 13.4664 12.8088 13.5685 10.7048H12.0426V14.9002ZM13.6917 5.7446C14.2351 6.71569 14.5857 8.06349 14.653 9.61811H16.4058C16.2174 7.91639 15.1611 6.47685 13.6917 5.7446ZM22.3561 2.71407V14.9616C22.3561 16.4608 21.1413 17.6756 19.642 17.6756H3.35762C1.85837 17.6756 0.643555 16.4608 0.643555 14.9616V4.78382C0.643555 3.28511 1.85837 2.06975 3.35762 2.06975H12.8992C13.1885 0.882072 14.2595 0 15.5356 0H19.6404C21.1413 0 22.3561 1.2159 22.3561 2.71407ZM17.5218 10.1609C17.5218 6.84054 14.8202 4.13895 11.4998 4.13895C8.17943 4.13895 5.47785 6.84054 5.47785 10.1609C5.47785 13.4808 8.17943 16.184 11.4998 16.184C14.8202 16.184 17.5218 13.4824 17.5218 10.1609ZM12.0426 5.42271V9.61811H13.5685C13.4664 7.51362 12.7852 5.95195 12.0426 5.42271ZM13.6917 14.5773C15.1611 13.845 16.2174 12.406 16.4047 10.7037H14.6525C14.5873 12.2584 14.2351 13.6062 13.6917 14.5773Z" fill="#C3CAD9"/>
</svg>
