<svg width="266" height="173" viewBox="0 0 266 173" fill="none" xmlns="http://www.w3.org/2000/svg">
    <path d="M223.841 75.8994C223.841 75.8994 228.866 8.20364 166.846 0.484009C113.691 -4.94373 97.5088 44.4557 97.5088 44.4557C97.5088 44.4557 81.5043 29.0629 59.7856 41.6373C40.3433 53.6387 43.7811 75.613 43.7811 75.613C43.7811 75.613 0.606934 84.0062 0.606934 128.017C1.56705 171.973 47.4822 172.414 47.4822 172.414H119.886V125.957H96.6571L135.371 87.2427L174.086 125.957H150.857V172.414H216.416C216.416 172.414 259.156 172.461 265.157 130.641C268.014 84.9121 223.841 75.8994 223.841 75.8994Z" fill="#C3CAD9"/>
</svg>