<svg width="12" height="12" viewBox="0 0 12 12" fill="none" xmlns="http://www.w3.org/2000/svg">
<path fill-rule="evenodd" clip-rule="evenodd" d="M0.799805 1.2C0.799805 0.537258 1.33706 0 1.9998 0H8.56548L11.1998 2.63431V10.8C11.1998 11.4627 10.6625 12 9.9998 12H1.9998C1.33706 12 0.799805 11.4627 0.799805 10.8V1.2ZM2.3998 5.83431V4.8H1.5998V6.16569L2.23412 6.8L1.5998 7.43431V8.8H2.3998V7.76569L2.7998 7.36569L3.1998 7.76569V8.8H3.9998V7.43431L3.36549 6.8L3.9998 6.16569V4.8H3.1998V5.83431L2.7998 6.23431L2.3998 5.83431ZM4.7998 4.8H5.5998V8H7.1998V8.8H4.7998V4.8ZM10.3998 4.8H7.9998V7.2H9.5998V8H7.9998V8.8H10.3998V6.4H8.7998V5.6H10.3998V4.8Z" fill="#FBFCFF"/>
</svg>
